<svg xmlns="http://www.w3.org/2000/svg" viewBox="0 0 32 32">
  <defs>
    <linearGradient id="grad" x1="0%" y1="0%" x2="100%" y2="100%">
      <stop offset="0%" style="stop-color:#6366f1"/>
      <stop offset="100%" style="stop-color:#8b5cf6"/>
    </linearGradient>
  </defs>
  <circle cx="16" cy="16" r="15" fill="url(#grad)"/>
  <path d="M16 8c-2.5 0-4.5 1.8-4.5 4 0 1.5.8 2.8 2 3.5v1c0 .3.2.5.5.5h4c.3 0 .5-.2.5-.5v-1c1.2-.7 2-2 2-3.5 0-2.2-2-4-4.5-4z" fill="white" opacity="0.9"/>
  <circle cx="16" cy="20" r="1.5" fill="white" opacity="0.9"/>
  <path d="M12 22.5c0 2.2 1.8 4 4 4s4-1.8 4-4" stroke="white" stroke-width="1.5" fill="none" stroke-linecap="round" opacity="0.9"/>
</svg>
